<svg width="57" height="56" viewBox="0 0 57 56" fill="none" xmlns="http://www.w3.org/2000/svg">
<path d="M28.4003 56C44.0853 56 56.8006 43.464 56.8006 28C56.8006 12.536 44.0853 0 28.4003 0C12.7152 0 0 12.536 0 28C0 43.464 12.7152 56 28.4003 56Z" fill="#1DA1F2"/>
<path d="M43.1554 19.4032C42.1125 19.8571 40.9976 20.1633 39.8216 20.3055C41.0198 19.5946 41.9406 18.4735 42.3732 17.1391C41.2528 17.7844 40.0047 18.2547 38.6845 18.5172C37.6251 17.4016 36.1218 16.7016 34.4467 16.7016C31.2405 16.7016 28.639 19.2664 28.639 22.4219C28.639 22.8758 28.6945 23.3133 28.7888 23.7289C23.963 23.5047 19.6807 21.2188 16.8185 17.7625C16.3137 18.6047 16.0309 19.5782 16.0309 20.6446C16.0309 22.6352 17.057 24.3852 18.6157 25.4133C17.6617 25.3805 16.7686 25.1235 15.9865 24.6969V24.768C15.9865 27.5461 17.9834 29.8594 20.6459 30.3844C20.1578 30.5157 19.6419 30.5813 19.1149 30.5813C18.7433 30.5813 18.3883 30.5485 18.0333 30.4829C18.7766 32.7579 20.9177 34.4149 23.4693 34.4586C21.489 35.9953 18.9707 36.9086 16.2694 36.9086C15.809 36.9086 15.3486 36.8813 14.8882 36.8321C17.4731 38.4563 20.5183 39.4024 23.8077 39.4024C34.4855 39.4024 40.3264 30.6797 40.3264 23.1274C40.3264 22.8868 40.3264 22.6407 40.3098 22.3946C41.4414 21.5907 42.4343 20.5789 43.2108 19.4305L43.1554 19.4032Z" fill="white"/>
</svg>
