<svg width="58" height="56" viewBox="0 0 58 56" fill="none" xmlns="http://www.w3.org/2000/svg">
<path d="M29.3327 56C45.0602 56 57.8099 43.464 57.8099 28C57.8099 12.536 45.0602 0 29.3327 0C13.6052 0 0.855469 12.536 0.855469 28C0.855469 43.464 13.6052 56 29.3327 56Z" fill="#0A66C2"/>
<path d="M39.4051 37.9094H35.178V31.4016C35.178 29.8484 35.1446 27.8523 32.9755 27.8523C30.7729 27.8523 30.4336 29.5422 30.4336 31.2867V37.9094H26.2065V24.5219H30.2668V26.3484H30.3224C30.8897 25.2984 32.2691 24.1883 34.327 24.1883C38.6097 24.1883 39.3995 26.9609 39.3995 30.5648L39.4051 37.9094ZM21.4399 22.6898C20.0773 22.6898 18.9871 21.607 18.9871 20.2781C18.9871 18.9492 20.0828 17.8664 21.4399 17.8664C22.7971 17.8664 23.8928 18.9492 23.8928 20.2781C23.8928 21.607 22.7915 22.6898 21.4399 22.6898ZM23.5591 37.9094H19.3208V24.5219H23.5591V37.9094ZM41.5186 14H17.2017C16.0393 14 15.0938 14.9023 15.0938 16.0234V40.0312C15.0938 41.1469 16.0337 42.0547 17.2017 42.0547H41.5131C42.6755 42.0547 43.6266 41.1523 43.6266 40.0312V16.0234C43.6266 14.9023 42.6755 14 41.5186 14Z" fill="white"/>
</svg>
