<svg width="57" height="56" viewBox="0 0 57 56" fill="none" xmlns="http://www.w3.org/2000/svg">
<path d="M28.4003 56C44.0853 56 56.8006 43.464 56.8006 28C56.8006 12.536 44.0853 0 28.4003 0C12.7152 0 0 12.536 0 28C0 43.464 12.7152 56 28.4003 56Z" fill="#1DA1F2"/>
<path d="M43.1549 19.4032C42.112 19.8571 40.9971 20.1634 39.8212 20.3056C41.0193 19.5946 41.9401 18.4735 42.3727 17.1392C41.2523 17.7845 40.0042 18.2548 38.684 18.5173C37.6246 17.4017 36.1214 16.7017 34.4462 16.7017C31.2401 16.7017 28.6385 19.2665 28.6385 22.422C28.6385 22.8759 28.694 23.3134 28.7883 23.729C23.9625 23.5048 19.6802 21.2188 16.818 17.7626C16.3133 18.6048 16.0304 19.5782 16.0304 20.6446C16.0304 22.6353 17.0565 24.3853 18.6152 25.4134C17.6612 25.3806 16.7681 25.1235 15.986 24.697V24.7681C15.986 27.5462 17.9829 29.8595 20.6454 30.3845C20.1573 30.5157 19.6414 30.5813 19.1145 30.5813C18.7428 30.5813 18.3878 30.5485 18.0328 30.4829C18.7761 32.7579 20.9172 34.4149 23.4688 34.4587C21.4885 35.9954 18.9702 36.9087 16.2689 36.9087C15.8085 36.9087 15.3481 36.8813 14.8877 36.8321C17.4726 38.4563 20.5178 39.4024 23.8072 39.4024C34.485 39.4024 40.3259 30.6798 40.3259 23.1274C40.3259 22.8868 40.3259 22.6407 40.3093 22.3946C41.4409 21.5907 42.4338 20.579 43.2103 19.4306L43.1549 19.4032Z" fill="white"/>
</svg>
