<svg width="61" height="56" viewBox="0 0 61 56" fill="none" xmlns="http://www.w3.org/2000/svg">
<path d="M30.8283 56C47.4121 56 60.8559 43.464 60.8559 28C60.8559 12.536 47.4121 0 30.8283 0C14.2446 0 0.800781 12.536 0.800781 28C0.800781 43.464 14.2446 56 30.8283 56Z" fill="#E4405F"/>
<path d="M30.8282 14C26.7522 14 26.242 14.0164 24.6409 14.082C23.0398 14.1531 21.9548 14.3883 20.9989 14.7328C20.0136 15.0883 19.175 15.5695 18.3363 16.3461C17.4976 17.1227 16.9874 17.9047 16.6062 18.8289C16.2367 19.7203 15.9845 20.7375 15.9083 22.225C15.832 23.718 15.8203 24.1937 15.8203 27.9945C15.8203 31.7953 15.8379 32.2711 15.9083 33.7641C15.9845 35.2516 16.2367 36.2688 16.6062 37.1602C16.9874 38.0789 17.5035 38.8609 18.3363 39.643C19.1691 40.4195 20.0077 40.9008 20.9989 41.2563C21.9548 41.6008 23.0457 41.8359 24.6409 41.907C26.242 41.9781 26.7522 41.9891 30.8282 41.9891C34.9042 41.9891 35.4145 41.9727 37.0155 41.907C38.6108 41.8359 39.7016 41.6008 40.6576 41.2563C41.6428 40.9008 42.4815 40.4195 43.3202 39.643C44.153 38.8664 44.6691 38.0844 45.0503 37.1602C45.4197 36.2688 45.6719 35.2516 45.7482 33.7641C45.8244 32.2711 45.8361 31.7953 45.8361 27.9945C45.8361 24.1937 45.8185 23.718 45.7482 22.225C45.6719 20.7375 45.4197 19.7203 45.0503 18.8289C44.6691 17.9102 44.153 17.1281 43.3202 16.3461C42.4874 15.5695 41.6487 15.0883 40.6576 14.7328C39.7016 14.3883 38.6108 14.1531 37.0155 14.082C35.4145 14.0164 34.9042 14 30.8282 14ZM30.8282 16.5211C34.8339 16.5211 35.3148 16.5375 36.8982 16.6031C38.3644 16.6688 39.1562 16.893 39.684 17.0898C40.3878 17.3414 40.8863 17.6477 41.4141 18.1344C41.9361 18.6266 42.2645 19.0914 42.5343 19.7477C42.7395 20.2398 42.9859 20.9781 43.0504 22.3453C43.1208 23.8219 43.1384 24.2648 43.1384 28.0055C43.1384 31.7461 43.1208 32.1891 43.0445 33.6656C42.9683 35.0328 42.722 35.7711 42.5167 36.2633C42.2352 36.9195 41.9185 37.3844 41.3907 37.8766C40.8687 38.3633 40.3585 38.6695 39.6664 38.9211C39.1386 39.1125 38.3351 39.3422 36.8689 39.4023C35.2737 39.468 34.8045 39.4844 30.7872 39.4844C26.7698 39.4844 26.3006 39.468 24.7054 39.3969C23.2392 39.3258 22.4358 39.0961 21.9079 38.9047C21.1983 38.6422 20.7057 38.3469 20.1837 37.8547C19.6559 37.368 19.3216 36.8922 19.0577 36.2469C18.8524 35.7547 18.6061 35.0055 18.5298 33.6383C18.4712 32.1672 18.4536 31.7133 18.4536 27.9891C18.4536 24.2594 18.4712 23.8055 18.5298 22.318C18.6061 20.9508 18.8465 20.2016 19.0577 19.7094C19.3216 19.0422 19.6559 18.5883 20.1837 18.0961C20.7057 17.6094 21.1983 17.2922 21.9079 17.0461C22.4358 16.8547 23.2216 16.625 24.6878 16.5539C26.283 16.4992 26.7522 16.4828 30.7696 16.4828L30.8282 16.5211ZM30.8282 20.8086C26.5704 20.8086 23.1161 24.0297 23.1161 28C23.1161 31.9703 26.5704 35.1914 30.8282 35.1914C35.086 35.1914 38.5404 31.9703 38.5404 28C38.5404 24.0297 35.086 20.8086 30.8282 20.8086ZM30.8282 32.6648C28.0659 32.6648 25.8256 30.5758 25.8256 28C25.8256 25.4242 28.0659 23.3352 30.8282 23.3352C33.5905 23.3352 35.8309 25.4242 35.8309 28C35.8309 30.5758 33.5905 32.6648 30.8282 32.6648ZM40.6458 20.5297C40.6458 21.4594 39.8365 22.2086 38.8453 22.2086C37.8483 22.2086 37.0449 21.4539 37.0449 20.5297C37.0449 19.6055 37.8542 18.8508 38.8453 18.8508C39.8365 18.8453 40.6458 19.6 40.6458 20.5297Z" fill="white"/>
</svg>
