<svg width="56" height="56" viewBox="0 0 56 56" fill="none" xmlns="http://www.w3.org/2000/svg">
<path d="M28 55.5088C43.464 55.5088 56 43.1927 56 28C56 12.8073 43.464 0.491241 28 0.491241C12.536 0.491241 0 12.8073 0 28C0 43.1927 12.536 55.5088 28 55.5088Z" fill="#3C5A99"/>
<path d="M30.1754 41.7544V29.2251H34.4738L35.1191 24.3197H30.1754V21.1981C30.1754 19.7797 30.5746 18.8179 32.6418 18.8179H35.2613V14.4445C34.8074 14.3854 33.2434 14.251 31.4223 14.251C27.6215 14.251 25.0184 16.5291 25.0184 20.7145V24.3251H20.7363V29.2304H25.0184V41.7544H30.1754Z" fill="white"/>
</svg>
