<svg width="61" height="56" viewBox="0 0 61 56" fill="none" xmlns="http://www.w3.org/2000/svg">
<path d="M30.8283 56C47.4121 56 60.8559 43.464 60.8559 28C60.8559 12.536 47.4121 0 30.8283 0C14.2446 0 0.800781 12.536 0.800781 28C0.800781 43.464 14.2446 56 30.8283 56Z" fill="#E4405F"/>
<path d="M30.8287 14C26.7527 14 26.2425 14.0164 24.6414 14.082C23.0403 14.1531 21.9553 14.3883 20.9994 14.7328C20.0141 15.0883 19.1754 15.5695 18.3368 16.3461C17.4981 17.1226 16.9879 17.9047 16.6067 18.8289C16.2372 19.7203 15.985 20.7375 15.9088 22.225C15.8325 23.718 15.8208 24.1937 15.8208 27.9945C15.8208 31.7953 15.8384 32.2711 15.9088 33.764C15.985 35.2515 16.2372 36.2687 16.6067 37.1601C16.9879 38.0789 17.504 38.8609 18.3368 39.643C19.1696 40.4195 20.0082 40.9008 20.9994 41.2562C21.9553 41.6008 23.0462 41.8359 24.6414 41.907C26.2425 41.9781 26.7527 41.989 30.8287 41.989C34.9047 41.989 35.415 41.9726 37.016 41.907C38.6112 41.8359 39.7021 41.6008 40.658 41.2562C41.6433 40.9008 42.482 40.4195 43.3206 39.643C44.1534 38.8664 44.6695 38.0844 45.0507 37.1601C45.4202 36.2687 45.6724 35.2515 45.7487 33.764C45.8249 32.2711 45.8366 31.7953 45.8366 27.9945C45.8366 24.1937 45.819 23.718 45.7487 22.225C45.6724 20.7375 45.4202 19.7203 45.0507 18.8289C44.6695 17.9101 44.1534 17.1281 43.3206 16.3461C42.4879 15.5695 41.6492 15.0883 40.658 14.7328C39.7021 14.3883 38.6112 14.1531 37.016 14.082C35.415 14.0164 34.9047 14 30.8287 14ZM30.8287 16.5211C34.8343 16.5211 35.3153 16.5375 36.8987 16.6031C38.3649 16.6687 39.1567 16.893 39.6845 17.0898C40.3883 17.3414 40.8868 17.6476 41.4146 18.1344C41.9366 18.6265 42.265 19.0914 42.5348 19.7476C42.74 20.2398 42.9864 20.9781 43.0509 22.3453C43.1212 23.8219 43.1388 24.2648 43.1388 28.0055C43.1388 31.7461 43.1212 32.189 43.045 33.6656C42.9688 35.0328 42.7224 35.7711 42.5172 36.2633C42.2357 36.9195 41.919 37.3844 41.3911 37.8765C40.8692 38.3633 40.3589 38.6695 39.6669 38.9211C39.1391 39.1125 38.3356 39.3422 36.8694 39.4023C35.2742 39.468 34.805 39.4844 30.7877 39.4844C26.7703 39.4844 26.3011 39.468 24.7059 39.3969C23.2397 39.3258 22.4362 39.0961 21.9084 38.9047C21.1988 38.6422 20.7061 38.3469 20.1842 37.8547C19.6564 37.368 19.3221 36.8922 19.0581 36.2469C18.8529 35.7547 18.6066 35.0055 18.5303 33.6383C18.4717 32.1672 18.4541 31.7133 18.4541 27.989C18.4541 24.2594 18.4717 23.8055 18.5303 22.318C18.6066 20.9508 18.847 20.2015 19.0581 19.7094C19.3221 19.0422 19.6564 18.5883 20.1842 18.0961C20.7061 17.6094 21.1988 17.2922 21.9084 17.0461C22.4362 16.8547 23.2221 16.625 24.6883 16.5539C26.2835 16.4992 26.7527 16.4828 30.7701 16.4828L30.8287 16.5211ZM30.8287 20.8086C26.5709 20.8086 23.1166 24.0297 23.1166 28C23.1166 31.9703 26.5709 35.1914 30.8287 35.1914C35.0865 35.1914 38.5409 31.9703 38.5409 28C38.5409 24.0297 35.0865 20.8086 30.8287 20.8086ZM30.8287 32.6648C28.0664 32.6648 25.8261 30.5758 25.8261 28C25.8261 25.4242 28.0664 23.3351 30.8287 23.3351C33.591 23.3351 35.8314 25.4242 35.8314 28C35.8314 30.5758 33.591 32.6648 30.8287 32.6648ZM40.6463 20.5297C40.6463 21.4594 39.837 22.2086 38.8458 22.2086C37.8488 22.2086 37.0454 21.4539 37.0454 20.5297C37.0454 19.6055 37.8547 18.8508 38.8458 18.8508C39.837 18.8453 40.6463 19.6 40.6463 20.5297Z" fill="white"/>
</svg>
