<svg width="58" height="56" viewBox="0 0 58 56" fill="none" xmlns="http://www.w3.org/2000/svg">
<path d="M29.3327 56C45.0602 56 57.8099 43.464 57.8099 28C57.8099 12.536 45.0602 0 29.3327 0C13.6052 0 0.855469 12.536 0.855469 28C0.855469 43.464 13.6052 56 29.3327 56Z" fill="#0A66C2"/>
<path d="M39.4056 37.9094H35.1785V31.4016C35.1785 29.8484 35.1451 27.8523 32.9759 27.8523C30.7734 27.8523 30.4341 29.5422 30.4341 31.2867V37.9094H26.207V24.5219H30.2673V26.3484H30.3229C30.8902 25.2984 32.2696 24.1883 34.3275 24.1883C38.6102 24.1883 39.4 26.9609 39.4 30.5648L39.4056 37.9094ZM21.4404 22.6898C20.0778 22.6898 18.9876 21.607 18.9876 20.2781C18.9876 18.9492 20.0833 17.8664 21.4404 17.8664C22.7976 17.8664 23.8933 18.9492 23.8933 20.2781C23.8933 21.607 22.792 22.6898 21.4404 22.6898ZM23.5595 37.9094H19.3213V24.5219H23.5595V37.9094ZM41.5191 14H17.2022C16.0398 14 15.0942 14.9023 15.0942 16.0234V40.0312C15.0942 41.1469 16.0342 42.0547 17.2022 42.0547H41.5135C42.676 42.0547 43.6271 41.1523 43.6271 40.0312V16.0234C43.6271 14.9023 42.676 14 41.5191 14Z" fill="white"/>
</svg>
