<svg width="100" height="91" viewBox="0 0 100 91" fill="none" xmlns="http://www.w3.org/2000/svg">
<g clip-path="url(#clip0_558_449)">
<path d="M82.5391 31.6881C82.5377 31.2338 82.5264 30.7796 82.5051 30.3258V4.56902L75.0473 11.6898C68.943 4.55634 59.6574 0 49.2563 0C38.4324 0 28.8164 4.93265 22.7383 12.5722L34.9629 24.3664C36.1599 22.2551 37.8553 20.4388 39.9148 19.0615C42.0492 17.4716 45.073 16.1711 49.2563 16.1711C49.7617 16.1711 50.152 16.2278 50.4383 16.3338C55.6215 16.7246 60.1141 19.4554 62.759 23.4191L54.1055 31.6807C65.066 31.6397 77.4477 31.6158 82.5383 31.6863" fill="#1C3AA9"/>
<path d="M49.0619 0.00112152C48.5861 0.00241052 48.1103 0.0132285 47.635 0.0335682H20.6576L28.1158 7.15432C20.6443 12.982 15.8721 21.8478 15.8721 31.778C15.8721 42.1125 21.0385 51.2934 29.04 57.0969L41.3932 45.4254C39.1817 44.2825 37.2794 42.6637 35.8369 40.6971C34.1717 38.6597 32.8096 35.7723 32.8096 31.7784C32.8096 31.2962 32.8689 30.9236 32.9799 30.6498C33.3893 25.7015 36.2494 21.4122 40.401 18.887L49.0541 27.1486C49.0111 16.6836 48.9857 4.86216 49.06 0.00186742" fill="#4285F4"/>
<path d="M15.873 31.7773C15.8746 32.2338 15.8855 32.6876 15.907 33.1397V58.8964L23.3652 51.7756C29.4691 58.9091 38.7551 63.4654 49.1559 63.4654C59.9801 63.4654 69.5961 58.5328 75.6746 50.8932L63.45 39.099C62.2529 41.2104 60.5574 43.0266 58.4977 44.4039C56.3637 45.9938 53.3395 47.2943 49.1563 47.2943C48.6512 47.2943 48.2609 47.2376 47.9742 47.1313C42.7914 46.7408 38.2988 44.0097 35.6539 40.0463L44.307 31.7844C33.3461 31.8254 20.9645 31.8496 15.8738 31.7791" fill="#ABABAB"/>
<path d="M21.4895 75.7717C20.6789 75.7717 19.952 75.9182 19.309 76.2118C18.6708 76.4951 18.1108 76.9168 17.6734 77.4432C17.2332 77.9769 16.8941 78.6244 16.6566 79.3848C16.4262 80.1389 16.3105 80.9829 16.3105 81.9172V84.6099C16.3105 85.5504 16.4262 86.3978 16.6566 87.1519C16.8941 87.906 17.2297 88.5497 17.6633 89.0838C18.0965 89.6171 18.6203 90.0277 19.2355 90.3145C19.8504 90.6017 20.5426 90.7453 21.3113 90.7453C22.1012 90.7453 22.793 90.6349 23.3871 90.4148C23.9883 90.1948 24.4914 89.8778 24.8965 89.4638C25.302 89.0435 25.6129 88.5367 25.8297 87.9425C26.0535 87.3488 26.1859 86.6745 26.2281 85.9208H24.2887C24.2398 86.5011 24.1559 86.9986 24.0371 87.4122C23.9184 87.8191 23.7434 88.1562 23.5129 88.4229C23.2891 88.6832 22.9957 88.8768 22.632 89.0036C22.2758 89.1237 21.8352 89.1837 21.3113 89.1837C20.7523 89.1837 20.277 89.067 19.8855 88.8332C19.4941 88.593 19.1762 88.2663 18.9316 87.8523C18.6941 87.4387 18.5191 86.955 18.4074 86.4011C18.3027 85.8473 18.25 85.2502 18.25 84.6095V81.897C18.25 81.2097 18.3129 80.5857 18.4387 80.0252C18.5715 79.465 18.7707 78.9876 19.0363 78.5942C19.302 78.2003 19.6375 77.8967 20.043 77.683C20.448 77.463 20.9305 77.353 21.4895 77.353C21.9578 77.353 22.3598 77.4197 22.6949 77.5533C23.0265 77.6769 23.3164 77.8845 23.5336 78.1537C23.7574 78.4204 23.9285 78.7609 24.0473 79.1745C24.1664 79.5885 24.2465 80.0819 24.2887 80.6558H26.2281C26.193 79.8685 26.0641 79.1715 25.8402 78.564C25.6164 77.9568 25.3055 77.4462 24.907 77.0326C24.5086 76.6186 24.023 76.3054 23.45 76.0917C22.8836 75.8783 22.2305 75.7717 21.4895 75.7717ZM68.8332 75.7717C68.0223 75.7717 67.2953 75.9182 66.6523 76.2118C66.0142 76.4951 65.4541 76.9168 65.0168 77.4432C64.5766 77.9769 64.2379 78.6244 64 79.3848C63.7695 80.1389 63.6543 80.9829 63.6543 81.9172V84.6099C63.6543 85.5504 63.7695 86.3978 64 87.1519C64.2375 87.906 64.573 88.5497 65.0066 89.0838C65.4398 89.6171 65.9637 90.0277 66.5789 90.3145C67.1941 90.6017 67.8859 90.7453 68.6547 90.7453C69.4445 90.7453 70.1363 90.6349 70.7305 90.4148C71.3316 90.1948 71.8348 89.8778 72.2402 89.4638C72.6453 89.0435 72.9562 88.5367 73.173 87.9425C73.3969 87.3488 73.5297 86.6745 73.5715 85.9208H71.632C71.5832 86.5011 71.4992 86.9986 71.3805 87.4122C71.2617 87.8191 71.0871 88.1562 70.8562 88.4229C70.6328 88.6832 70.3391 88.8768 69.9758 89.0036C69.6191 89.1237 69.1789 89.1837 68.6547 89.1837C68.0957 89.1837 67.6203 89.067 67.2289 88.8332C66.8375 88.593 66.5195 88.2663 66.275 87.8523C66.0375 87.4387 65.8629 86.955 65.7508 86.4011C65.6461 85.8473 65.5937 85.2502 65.5937 84.6095V81.897C65.5937 81.2097 65.6562 80.5857 65.7824 80.0252C65.9152 79.465 66.1145 78.9876 66.3801 78.5942C66.6457 78.2003 66.9809 77.8967 67.3863 77.683C67.7918 77.463 68.2738 77.353 68.8328 77.353C69.3016 77.353 69.7031 77.4197 70.0387 77.5533C70.3738 77.6801 70.6535 77.88 70.8773 78.1537C71.1008 78.4204 71.2719 78.7609 71.391 79.1745C71.5098 79.5885 71.5902 80.0819 71.632 80.6558H73.5715C73.5363 79.8685 73.4074 79.1715 73.1836 78.564C72.9598 77.9568 72.6488 77.4462 72.2504 77.0326C71.852 76.6186 71.3664 76.3054 70.7934 76.0917C70.227 75.8783 69.5738 75.7713 68.8328 75.7713L68.8332 75.7717ZM32.5398 75.9719L27.623 90.545H29.5938L30.7785 86.7413H35.9363L37.1418 90.545H39.1129L34.1855 75.9719H32.5398ZM41.1883 75.9719V90.545H43.1066V84.8396H46.0523C46.7863 84.8396 47.4363 84.7426 48.0023 84.5494C48.5688 84.3492 49.0438 84.0624 49.4281 83.6887C49.8195 83.315 50.1129 82.8544 50.3086 82.3073C50.5117 81.7534 50.6129 81.1265 50.6129 80.4257C50.6129 79.7783 50.5113 79.1845 50.3086 78.6441C50.1133 78.097 49.823 77.6264 49.4387 77.2329C49.0543 76.8323 48.5754 76.522 48.0023 76.302C47.4359 76.082 46.7863 75.9716 46.0523 75.9716H41.1883V75.9719ZM52.0805 75.9719V77.5533H56.0852V90.545H58.0031V77.5533H62.0188V75.9719H52.0805ZM76.1609 75.9719V90.545H78.0789V83.8088H84.2227V90.545H86.1516V75.9719H84.2227V82.2375H78.0793V75.9719H76.1609ZM93.4266 75.9719L88.5102 90.545H90.4813L91.6656 86.7413H96.8234L98.0293 90.545H100L95.0727 75.9719H93.427H93.4266ZM43.1062 77.5533H46.0523C46.5207 77.5533 46.9188 77.6331 47.2477 77.7934C47.5828 77.9538 47.8555 78.1671 48.0652 78.4342C48.2867 78.7107 48.4471 79.0273 48.5367 79.3647C48.6418 79.7115 48.6941 80.0722 48.6941 80.4459C48.6941 80.8598 48.6418 81.2399 48.5367 81.5871C48.4469 81.9123 48.2862 82.2158 48.0652 82.4777C47.8555 82.7246 47.5828 82.9178 47.2473 83.058C46.9191 83.1982 46.5207 83.2684 46.052 83.2684H43.1066L43.1062 77.5533ZM33.357 78.5341L35.4434 85.16H31.2816L33.357 78.5341ZM94.2445 78.5341L96.3305 85.16H92.1687L94.2445 78.5341ZM3.9418 79.515C3.45937 79.515 3.04336 79.6317 2.69414 79.8656C2.35156 80.099 2.06523 80.416 1.83477 80.8162L1.80313 79.7153H0V90.545H1.85547V82.7977C2.03047 82.3371 2.27852 81.9735 2.6 81.7068C2.92813 81.4398 3.34414 81.3063 3.84727 81.3063C4.0082 81.3063 4.15156 81.313 4.27695 81.3264C4.40313 81.3331 4.53945 81.3495 4.68594 81.3764L4.67578 79.6548C4.63194 79.6365 4.58608 79.623 4.53906 79.6146C4.47783 79.5931 4.41486 79.5763 4.35078 79.5646C4.27795 79.5509 4.20441 79.5409 4.13047 79.5347C4.06842 79.5222 4.00522 79.5154 3.9418 79.5146V79.515ZM10.1793 79.515C9.64102 79.515 9.1207 79.6052 8.61719 79.7854C8.11406 79.9655 7.6668 80.2624 7.27539 80.676C6.89102 81.0832 6.58008 81.6169 6.34258 82.2774C6.10469 82.9316 5.98594 83.7357 5.98594 84.6897V85.9107C5.98594 86.7383 6.0875 87.4555 6.29023 88.0626C6.49258 88.6698 6.78242 89.174 7.16016 89.5742C7.54576 89.9687 8.0236 90.2706 8.55469 90.4551C9.09961 90.6487 9.71094 90.7453 10.3891 90.7453C10.8781 90.7453 11.3148 90.6987 11.6996 90.605C12.091 90.5118 12.4367 90.3917 12.7375 90.2448C13.0187 90.1044 13.2795 89.9295 13.5133 89.7245C13.7191 89.5427 13.9052 89.3415 14.0687 89.1241L13.1043 88.003C12.9504 88.1831 12.7863 88.3498 12.6117 88.5031C12.4367 88.65 12.2445 88.7802 12.0352 88.8936C11.816 89.0038 11.5836 89.0878 11.343 89.1438C11.0649 89.2068 10.7799 89.2371 10.4941 89.2341C9.63437 89.2341 8.97383 88.9704 8.5125 88.4434C8.0582 87.9161 7.83125 87.0721 7.83125 85.9111V85.6605H14.1633V84.6296C14.1633 83.8024 14.0898 83.0714 13.943 82.4378C13.7961 81.8038 13.5621 81.2701 13.2406 80.8363C12.9278 80.4095 12.5005 80.0707 12.0035 79.8555C11.5004 79.6284 10.8922 79.515 10.1793 79.515ZM10.1793 81.0366C10.5848 81.0366 10.9203 81.1064 11.1859 81.2466C11.4487 81.3841 11.6664 81.5885 11.8148 81.837C11.9754 82.0906 12.091 82.3942 12.1609 82.7481C12.2375 83.0949 12.2867 83.4787 12.3074 83.899V84.1392H7.84141C7.86953 83.532 7.94648 83.0282 8.07187 82.6276C8.19805 82.2274 8.36211 81.9104 8.56484 81.677C8.77461 81.4368 9.01562 81.2701 9.28828 81.1765C9.57454 81.0808 9.87603 81.0334 10.1793 81.0362V81.0366Z" fill="#A6A6A6"/>
</g>
<defs>
<clipPath id="clip0_558_449">
<rect width="100" height="91" fill="white"/>
</clipPath>
</defs>
</svg>
