<svg width="24" height="24" viewBox="0 0 24 24" fill="none" xmlns="http://www.w3.org/2000/svg">
<g clip-path="url(#clip0_573_67)">
<path d="M13.5 7C15.2239 7 16.8772 7.68482 18.0962 8.90381C19.3152 10.1228 20 11.7761 20 13.5C20 15.12 19.41 16.6 18.43 17.73L24.08 23.38L23.37 24.09L17.72 18.44C16.5453 19.4482 15.048 20.0017 13.5 20C11.7761 20 10.1228 19.3152 8.90381 18.0962C7.68482 16.8772 7 15.2239 7 13.5C7 11.7761 7.68482 10.1228 8.90381 8.90381C10.1228 7.68482 11.7761 7 13.5 7ZM13.5 8C12.0413 8 10.6424 8.57946 9.61091 9.61091C8.57946 10.6424 8 12.0413 8 13.5C8 14.9587 8.57946 16.3576 9.61091 17.3891C10.6424 18.4205 12.0413 19 13.5 19C14.2223 19 14.9375 18.8577 15.6048 18.5813C16.272 18.3049 16.8784 17.8998 17.3891 17.3891C17.8998 16.8784 18.3049 16.272 18.5813 15.6048C18.8577 14.9375 19 14.2223 19 13.5C19 12.7777 18.8577 12.0625 18.5813 11.3952C18.3049 10.728 17.8998 10.1216 17.3891 9.61091C16.8784 9.10019 16.272 8.69506 15.6048 8.41866C14.9375 8.14226 14.2223 8 13.5 8Z" fill="black"/>
</g>
<defs>
<clipPath id="clip0_573_67">
<rect width="24" height="24" fill="white"/>
</clipPath>
</defs>
</svg>
