<svg width="59" height="54" viewBox="0 0 59 54" fill="none" xmlns="http://www.w3.org/2000/svg">
<path d="M31.8462 1.78871C31.3484 2.19371 27.4766 9.22636 27.4766 9.22636L24.5957 19.8618L35.8057 18.921C35.8057 18.921 45.1305 3.05011 45.3195 2.68308C45.6559 2.01652 45.8357 1.7423 44.5497 1.7423C43.2637 1.73808 32.3118 1.40902 31.8462 1.78871Z" fill="#176CC7"/>
<path d="M37.6493 18.2629C37.0916 17.9887 20.6638 17.7525 20.2766 18.2629C19.9263 18.727 19.977 20.849 20.1475 21.1232C20.3181 21.3975 25.8401 23.7473 25.8401 23.7473L25.8355 24.6037C25.8355 24.6037 26.1397 25.2745 29.2188 25.2745C32.2978 25.2745 32.6159 24.705 32.6159 24.705L32.6436 23.8401C32.6436 23.8401 37.4788 21.6295 37.7323 21.4354C37.9904 21.2372 38.2071 18.5372 37.6493 18.2629ZM32.5882 21.7771C32.5882 21.7771 32.5744 21.1865 32.2564 21.0389C31.9383 20.8912 26.8173 20.9165 26.384 20.9376C25.9507 20.9587 25.9507 21.6675 25.9507 21.6675L22.4476 20.1065V19.7943L35.4921 19.8787L35.5152 20.2331L32.5882 21.7771Z" fill="#FCC417"/>
<path d="M27.315 21.5874C26.8817 21.5874 26.6328 22.0008 26.6328 22.7138C26.6328 23.3804 26.8817 23.9415 27.4302 23.8993C27.882 23.8655 28.0387 23.2327 27.9972 22.6716C27.9557 22.0051 27.8635 21.5874 27.315 21.5874Z" fill="#FDFFFF"/>
<path d="M13.3584 38.2725C13.3584 48.3807 23.3423 52.8821 29.9798 52.6669C37.2995 52.4264 46.0665 47.2036 45.5364 37.5596C45.034 28.4218 36.6357 24.0891 29.3621 24.1355C20.9086 24.1903 13.3584 29.4427 13.3584 38.2725Z" fill="#FCC417"/>
<path d="M29.7445 50.9077C29.6292 50.9077 29.5094 50.9077 29.3942 50.9034C25.9371 50.798 22.5216 49.4649 20.0233 47.25C17.3499 44.8791 15.8841 41.6728 15.9025 38.2261C15.944 29.8097 23.9827 25.9073 29.4356 25.9073H29.4817C36.8706 25.9369 42.9365 31.1934 43.107 38.3189C43.1808 41.4914 41.7611 44.82 38.977 47.3259C36.3774 49.6589 32.9295 50.9077 29.7445 50.9077ZM29.4264 27.308C24.5359 27.308 17.3038 30.9698 17.2853 38.2261C17.2715 43.6514 21.8624 49.2286 29.5094 49.4649C32.4225 49.5492 35.4232 48.5283 37.8478 46.3472C40.3645 44.0817 41.7795 41.1624 41.7288 38.3358C41.6182 32.2059 36.1423 27.3291 29.4956 27.3038C29.4771 27.3038 29.4402 27.308 29.4264 27.308Z" fill="#FA912C"/>
<path d="M26.651 25.5699C26.3329 25.1691 22.7284 25.245 19.322 28.2909C16.0356 31.2314 15.6806 34.0031 16.3121 34.1635C17.0266 34.3449 17.8977 31.4086 20.9077 28.9406C23.6733 26.6794 27.287 26.3672 26.651 25.5699ZM40.5943 36.4838C39.4835 36.6272 40.6358 39.6731 38.0592 43.0819C35.8236 46.0392 33.2885 47.1108 33.5835 47.7605C33.9799 48.6295 38.0407 46.4653 39.9213 42.9384C41.6268 39.7449 41.424 36.3741 40.5943 36.4838Z" fill="#FEFFFA"/>
<path d="M25.743 32.4928C25.5033 32.8177 25.72 35.6653 25.8629 35.7919C26.1394 36.045 28.2413 35.138 28.2413 35.138L28.163 42.7528C28.163 42.7528 26.6188 42.736 26.4575 42.7908C26.1394 42.9005 26.1809 45.8367 26.416 45.9802C26.6511 46.1236 32.9521 46.1996 33.1918 45.9085C33.4315 45.6174 33.3716 43.0482 33.2609 42.93C33.0627 42.7107 31.5555 42.7992 31.5555 42.7992C31.5555 42.7992 31.6845 31.5858 31.643 31.2272C31.6016 30.8686 31.1683 30.645 30.652 30.7547C30.1358 30.8644 25.8951 32.2819 25.743 32.4928Z" fill="#FA912C"/>
<path d="M11.7585 1.56943C11.4681 1.81412 22.5721 19.9126 22.5721 19.9126C22.5721 19.9126 24.4343 20.1319 28.592 20.1657C32.7496 20.1994 34.81 19.9463 34.81 19.9463C34.81 19.9463 26.1767 1.75083 25.6604 1.56943C25.4069 1.47662 21.9867 1.44287 18.6449 1.40912C15.2985 1.37115 12.0351 1.33318 11.7585 1.56943Z" fill="#2E9DF4"/>
</svg>
