<svg width="256" height="256" viewBox="0 0 256 256" fill="none" xmlns="http://www.w3.org/2000/svg">
<path d="M200 48V224C199.998 225.423 199.617 226.82 198.896 228.047C198.174 229.274 197.138 230.286 195.895 230.979C194.652 231.672 193.246 232.021 191.823 231.989C190.4 231.958 189.011 231.547 187.8 230.8L128 193.4L68.2 230.8C66.9476 231.602 65.4873 232.02 64 232C62.6349 232.014 61.2901 231.669 60.1 231C58.8615 230.297 57.8304 229.279 57.1105 228.05C56.3907 226.821 56.0076 225.424 56 224V48C56 43.7565 57.6857 39.6869 60.6863 36.6863C63.6869 33.6857 67.7565 32 72 32H184C188.243 32 192.313 33.6857 195.314 36.6863C198.314 39.6869 200 43.7565 200 48Z" fill="black"/>
</svg>
