<svg width="56" height="68" viewBox="0 0 56 68" fill="none" xmlns="http://www.w3.org/2000/svg">
<path d="M40.25 8.5H15.75C14.8217 8.5 13.9315 8.94777 13.2751 9.7448C12.6187 10.5418 12.25 11.6228 12.25 12.75V59.5C12.2517 59.8783 12.3355 60.2494 12.4929 60.5759C12.6504 60.9023 12.876 61.1726 13.1469 61.3594C13.4072 61.537 13.7014 61.6286 14 61.625C14.3253 61.6302 14.6448 61.5194 14.9187 61.3063L28 51.3719L41.0813 61.3063C41.3462 61.5047 41.65 61.6138 41.9613 61.6221C42.2726 61.6305 42.58 61.5379 42.852 61.3538C43.124 61.1697 43.3505 60.9009 43.5084 60.575C43.6663 60.2492 43.7497 59.8781 43.75 59.5V12.75C43.75 11.6228 43.3813 10.5418 42.7249 9.7448C42.0685 8.94777 41.1783 8.5 40.25 8.5ZM40.25 55.675L28.9187 47.0687C28.6426 46.8619 28.3245 46.7523 28 46.7523C27.6755 46.7523 27.3574 46.8619 27.0813 47.0687L15.75 55.675V12.75H40.25V55.675Z" fill="black"/>
</svg>
