<svg width="1448" height="376" viewBox="0 0 1448 376" fill="none" xmlns="http://www.w3.org/2000/svg">
<g filter="url(#filter0_f_558_376)">
<path fill-rule="evenodd" clip-rule="evenodd" d="M4 205.709L22 219.566C41.2 233.424 78.4 261.139 114.4 254.21C151.6 247.282 188.8 205.709 226 198.78C262 191.851 299.2 219.566 336.4 247.282C373.6 274.997 409.6 302.712 446.8 316.57C484 330.427 521.2 330.427 558.4 281.926C594.4 233.424 631.6 136.421 668.8 129.492C706 122.563 742 205.709 779.2 212.637C816.4 219.566 853.6 150.278 889.6 108.705C926.8 67.1326 964 53.275 1001.2 32.4885C1038.4 11.7021 1074.4 -16.0131 1111.6 25.5597C1148.8 67.1326 1186 177.993 1222 198.78C1259.2 219.566 1296.4 150.278 1333.6 129.492C1369.6 108.705 1406.8 136.421 1426 150.278L1444 164.136V372H1426C1406.8 372 1369.6 372 1333.6 372C1296.4 372 1259.2 372 1222 372C1186 372 1148.8 372 1111.6 372C1074.4 372 1038.4 372 1001.2 372C964 372 926.8 372 889.6 372C853.6 372 816.4 372 779.2 372C742 372 706 372 668.8 372C631.6 372 594.4 372 558.4 372C521.2 372 484 372 446.8 372C409.6 372 373.6 372 336.4 372C299.2 372 262 372 226 372C188.8 372 151.6 372 114.4 372C78.4 372 41.2 372 22 372H4V205.709Z" fill="#89DFFA" fill-opacity="0.4"/>
<path fill-rule="evenodd" clip-rule="evenodd" d="M4 205.709L22 219.566C41.2 233.424 78.4 261.139 114.4 254.21C151.6 247.282 188.8 205.709 226 198.78C262 191.851 299.2 219.566 336.4 247.282C373.6 274.997 409.6 302.712 446.8 316.57C484 330.427 521.2 330.427 558.4 281.926C594.4 233.424 631.6 136.421 668.8 129.492C706 122.563 742 205.709 779.2 212.637C816.4 219.566 853.6 150.278 889.6 108.705C926.8 67.1326 964 53.275 1001.2 32.4885C1038.4 11.7021 1074.4 -16.0131 1111.6 25.5597C1148.8 67.1326 1186 177.993 1222 198.78C1259.2 219.566 1296.4 150.278 1333.6 129.492C1369.6 108.705 1406.8 136.421 1426 150.278L1444 164.136V372H1426C1406.8 372 1369.6 372 1333.6 372C1296.4 372 1259.2 372 1222 372C1186 372 1148.8 372 1111.6 372C1074.4 372 1038.4 372 1001.2 372C964 372 926.8 372 889.6 372C853.6 372 816.4 372 779.2 372C742 372 706 372 668.8 372C631.6 372 594.4 372 558.4 372C521.2 372 484 372 446.8 372C409.6 372 373.6 372 336.4 372C299.2 372 262 372 226 372C188.8 372 151.6 372 114.4 372C78.4 372 41.2 372 22 372H4V205.709Z" stroke="black"/>
</g>
<defs>
<filter id="filter0_f_558_376" x="0" y="9.53674e-07" width="1448" height="376" filterUnits="userSpaceOnUse" color-interpolation-filters="sRGB">
<feFlood flood-opacity="0" result="BackgroundImageFix"/>
<feBlend mode="normal" in="SourceGraphic" in2="BackgroundImageFix" result="shape"/>
<feGaussianBlur stdDeviation="2" result="effect1_foregroundBlur_558_376"/>
</filter>
</defs>
</svg>
