<svg width="1448" height="144" viewBox="0 0 1448 144" fill="none" xmlns="http://www.w3.org/2000/svg">
<g filter="url(#filter0_f_558_377)">
<path fill-rule="evenodd" clip-rule="evenodd" d="M4 4L22 22.1333C41.2 40.2667 78.4 76.5333 114.4 94.6667C151.6 112.8 188.8 112.8 226 99.2C262 85.6 299.2 58.4 336.4 56.1333C373.6 53.8667 409.6 76.5333 446.8 81.0667C484 85.6 521.2 72 558.4 65.2C594.4 58.4 631.6 58.4 668.8 51.6C706 44.8 742 31.2 779.2 42.5333C816.4 53.8667 853.6 90.1333 889.6 96.9333C926.8 103.733 964 81.0667 1001.2 72C1038.4 62.9333 1074.4 67.4667 1111.6 67.4667C1148.8 67.4667 1186 62.9333 1222 69.7333C1259.2 76.5333 1296.4 94.6667 1333.6 106C1369.6 117.333 1406.8 121.867 1426 124.133L1444 126.4V140H1426C1406.8 140 1369.6 140 1333.6 140C1296.4 140 1259.2 140 1222 140C1186 140 1148.8 140 1111.6 140C1074.4 140 1038.4 140 1001.2 140C964 140 926.8 140 889.6 140C853.6 140 816.4 140 779.2 140C742 140 706 140 668.8 140C631.6 140 594.4 140 558.4 140C521.2 140 484 140 446.8 140C409.6 140 373.6 140 336.4 140C299.2 140 262 140 226 140C188.8 140 151.6 140 114.4 140C78.4 140 41.2 140 22 140H4V4Z" fill="#75D7F6" fill-opacity="0.3"/>
<path fill-rule="evenodd" clip-rule="evenodd" d="M4 4L22 22.1333C41.2 40.2667 78.4 76.5333 114.4 94.6667C151.6 112.8 188.8 112.8 226 99.2C262 85.6 299.2 58.4 336.4 56.1333C373.6 53.8667 409.6 76.5333 446.8 81.0667C484 85.6 521.2 72 558.4 65.2C594.4 58.4 631.6 58.4 668.8 51.6C706 44.8 742 31.2 779.2 42.5333C816.4 53.8667 853.6 90.1333 889.6 96.9333C926.8 103.733 964 81.0667 1001.2 72C1038.4 62.9333 1074.4 67.4667 1111.6 67.4667C1148.8 67.4667 1186 62.9333 1222 69.7333C1259.2 76.5333 1296.4 94.6667 1333.6 106C1369.6 117.333 1406.8 121.867 1426 124.133L1444 126.4V140H1426C1406.8 140 1369.6 140 1333.6 140C1296.4 140 1259.2 140 1222 140C1186 140 1148.8 140 1111.6 140C1074.4 140 1038.4 140 1001.2 140C964 140 926.8 140 889.6 140C853.6 140 816.4 140 779.2 140C742 140 706 140 668.8 140C631.6 140 594.4 140 558.4 140C521.2 140 484 140 446.8 140C409.6 140 373.6 140 336.4 140C299.2 140 262 140 226 140C188.8 140 151.6 140 114.4 140C78.4 140 41.2 140 22 140H4V4Z" stroke="black"/>
</g>
<defs>
<filter id="filter0_f_558_377" x="0" y="0" width="1448" height="144" filterUnits="userSpaceOnUse" color-interpolation-filters="sRGB">
<feFlood flood-opacity="0" result="BackgroundImageFix"/>
<feBlend mode="normal" in="SourceGraphic" in2="BackgroundImageFix" result="shape"/>
<feGaussianBlur stdDeviation="2" result="effect1_foregroundBlur_558_377"/>
</filter>
</defs>
</svg>
