<svg width="26" height="26" viewBox="0 0 26 26" fill="none" xmlns="http://www.w3.org/2000/svg">
<path d="M18.1175 11.134L25 1M8.968 11.3584L1 1M15.328 10.6576L8.08 1M18.28 1L16.36 4M2.84615 17.8C2.84615 19.7096 4.01318 21.5409 6.09051 22.8912C8.16784 24.2414 10.9853 25 13.9231 25C16.8609 25 19.6783 24.2414 21.7556 22.8912C23.833 21.5409 25 19.7096 25 17.8C25 15.8904 23.833 14.0591 21.7556 12.7088C19.6783 11.3586 16.8609 10.6 13.9231 10.6C10.9853 10.6 8.16784 11.3586 6.09051 12.7088C4.01318 14.0591 2.84615 15.8904 2.84615 17.8Z" stroke="black" stroke-width="1.5" stroke-linecap="round" stroke-linejoin="round"/>
</svg>
