<svg width="1448" height="583" viewBox="0 0 1448 583" fill="none" xmlns="http://www.w3.org/2000/svg">
<g filter="url(#filter0_f_558_414)">
<path fill-rule="evenodd" clip-rule="evenodd" d="M4 285.183L17.2 334.153C30.4 383.122 56.8 481.061 84.4 517.788C110.8 554.515 137.2 530.03 163.6 419.849C191.2 309.668 217.6 113.79 244 40.3359C270.4 -33.1183 296.8 15.8511 324.4 89.3053C350.8 162.76 377.2 260.698 403.6 297.426C431.2 334.153 457.6 309.668 484 346.395C510.4 383.122 536.8 481.061 564.4 481.061C590.8 481.061 617.2 383.122 643.6 321.91C671.2 260.698 697.6 236.214 724 260.698C750.4 285.183 776.8 358.637 804.4 334.153C830.8 309.668 857.2 187.244 883.6 199.487C911.2 211.729 937.6 358.637 964 358.637C990.4 358.637 1016.8 211.729 1044.4 175.002C1070.8 138.275 1097.2 211.729 1123.6 260.698C1151.2 309.668 1177.6 334.153 1204 383.122C1230.4 432.092 1256.8 505.546 1284.4 444.334C1310.8 383.122 1337.2 187.244 1363.6 162.76C1391.2 138.275 1417.6 285.183 1430.8 358.637L1444 432.092V579H1430.8C1417.6 579 1391.2 579 1363.6 579C1337.2 579 1310.8 579 1284.4 579C1256.8 579 1230.4 579 1204 579C1177.6 579 1151.2 579 1123.6 579C1097.2 579 1070.8 579 1044.4 579C1016.8 579 990.4 579 964 579C937.6 579 911.2 579 883.6 579C857.2 579 830.8 579 804.4 579C776.8 579 750.4 579 724 579C697.6 579 671.2 579 643.6 579C617.2 579 590.8 579 564.4 579C536.8 579 510.4 579 484 579C457.6 579 431.2 579 403.6 579C377.2 579 350.8 579 324.4 579C296.8 579 270.4 579 244 579C217.6 579 191.2 579 163.6 579C137.2 579 110.8 579 84.4 579C56.8 579 30.4 579 17.2 579H4V285.183Z" fill="#ACD2F5" fill-opacity="0.67"/>
<path fill-rule="evenodd" clip-rule="evenodd" d="M4 285.183L17.2 334.153C30.4 383.122 56.8 481.061 84.4 517.788C110.8 554.515 137.2 530.03 163.6 419.849C191.2 309.668 217.6 113.79 244 40.3359C270.4 -33.1183 296.8 15.8511 324.4 89.3053C350.8 162.76 377.2 260.698 403.6 297.426C431.2 334.153 457.6 309.668 484 346.395C510.4 383.122 536.8 481.061 564.4 481.061C590.8 481.061 617.2 383.122 643.6 321.91C671.2 260.698 697.6 236.214 724 260.698C750.4 285.183 776.8 358.637 804.4 334.153C830.8 309.668 857.2 187.244 883.6 199.487C911.2 211.729 937.6 358.637 964 358.637C990.4 358.637 1016.8 211.729 1044.4 175.002C1070.8 138.275 1097.2 211.729 1123.6 260.698C1151.2 309.668 1177.6 334.153 1204 383.122C1230.4 432.092 1256.8 505.546 1284.4 444.334C1310.8 383.122 1337.2 187.244 1363.6 162.76C1391.2 138.275 1417.6 285.183 1430.8 358.637L1444 432.092V579H1430.8C1417.6 579 1391.2 579 1363.6 579C1337.2 579 1310.8 579 1284.4 579C1256.8 579 1230.4 579 1204 579C1177.6 579 1151.2 579 1123.6 579C1097.2 579 1070.8 579 1044.4 579C1016.8 579 990.4 579 964 579C937.6 579 911.2 579 883.6 579C857.2 579 830.8 579 804.4 579C776.8 579 750.4 579 724 579C697.6 579 671.2 579 643.6 579C617.2 579 590.8 579 564.4 579C536.8 579 510.4 579 484 579C457.6 579 431.2 579 403.6 579C377.2 579 350.8 579 324.4 579C296.8 579 270.4 579 244 579C217.6 579 191.2 579 163.6 579C137.2 579 110.8 579 84.4 579C56.8 579 30.4 579 17.2 579H4V285.183Z" stroke="black"/>
</g>
<defs>
<filter id="filter0_f_558_414" x="0" y="0" width="1448" height="583" filterUnits="userSpaceOnUse" color-interpolation-filters="sRGB">
<feFlood flood-opacity="0" result="BackgroundImageFix"/>
<feBlend mode="normal" in="SourceGraphic" in2="BackgroundImageFix" result="shape"/>
<feGaussianBlur stdDeviation="2" result="effect1_foregroundBlur_558_414"/>
</filter>
</defs>
</svg>
