<svg width="1448" height="411" viewBox="0 0 1448 411" fill="none" xmlns="http://www.w3.org/2000/svg">
<g filter="url(#filter0_f_558_413)">
<path fill-rule="evenodd" clip-rule="evenodd" d="M1444 209.927L1430.8 175.606C1417.6 141.285 1391.2 72.6424 1363.6 46.9015C1337.2 21.1606 1310.8 38.3212 1284.4 115.544C1256.8 192.767 1230.4 330.051 1204 381.533C1177.6 433.015 1151.2 398.694 1123.6 347.212C1097.2 295.73 1070.8 227.088 1044.4 201.347C1016.8 175.606 990.4 192.767 964 167.026C937.6 141.285 911.2 72.6424 883.6 72.6424C857.2 72.6424 830.8 141.285 804.4 184.186C776.8 227.088 750.4 244.248 724 227.088C697.6 209.927 671.2 158.445 643.6 175.606C617.2 192.767 590.8 278.57 564.4 269.989C536.8 261.409 510.4 158.445 484 158.445C457.6 158.445 431.2 261.409 403.6 287.15C377.2 312.891 350.8 261.409 324.4 227.088C296.8 192.767 270.4 175.606 244 141.285C217.6 106.964 191.2 55.4818 163.6 98.3833C137.2 141.285 110.8 278.57 84.3999 295.73C56.7999 312.891 30.3999 209.927 17.1999 158.445L3.99994 106.964V4H17.1999C30.3999 4 56.7999 4 84.3999 4C110.8 4 137.2 4 163.6 4C191.2 4 217.6 4 244 4C270.4 4 296.8 4 324.4 4C350.8 4 377.2 4 403.6 4C431.2 4 457.6 4 484 4C510.4 4 536.8 4 564.4 4C590.8 4 617.2 4 643.6 4C671.2 4 697.6 4 724 4C750.4 4 776.8 4 804.4 4C830.8 4 857.2 4 883.6 4C911.2 4 937.6 4 964 4C990.4 4 1016.8 4 1044.4 4C1070.8 4 1097.2 4 1123.6 4C1151.2 4 1177.6 4 1204 4C1230.4 4 1256.8 4 1284.4 4C1310.8 4 1337.2 4 1363.6 4C1391.2 4 1417.6 4 1430.8 4H1444V209.927Z" fill="#ACD2F5" fill-opacity="0.67"/>
<path fill-rule="evenodd" clip-rule="evenodd" d="M1444 209.927L1430.8 175.606C1417.6 141.285 1391.2 72.6424 1363.6 46.9015C1337.2 21.1606 1310.8 38.3212 1284.4 115.544C1256.8 192.767 1230.4 330.051 1204 381.533C1177.6 433.015 1151.2 398.694 1123.6 347.212C1097.2 295.73 1070.8 227.088 1044.4 201.347C1016.8 175.606 990.4 192.767 964 167.026C937.6 141.285 911.2 72.6424 883.6 72.6424C857.2 72.6424 830.8 141.285 804.4 184.186C776.8 227.088 750.4 244.248 724 227.088C697.6 209.927 671.2 158.445 643.6 175.606C617.2 192.767 590.8 278.57 564.4 269.989C536.8 261.409 510.4 158.445 484 158.445C457.6 158.445 431.2 261.409 403.6 287.15C377.2 312.891 350.8 261.409 324.4 227.088C296.8 192.767 270.4 175.606 244 141.285C217.6 106.964 191.2 55.4818 163.6 98.3833C137.2 141.285 110.8 278.57 84.3999 295.73C56.7999 312.891 30.3999 209.927 17.1999 158.445L3.99994 106.964V4H17.1999C30.3999 4 56.7999 4 84.3999 4C110.8 4 137.2 4 163.6 4C191.2 4 217.6 4 244 4C270.4 4 296.8 4 324.4 4C350.8 4 377.2 4 403.6 4C431.2 4 457.6 4 484 4C510.4 4 536.8 4 564.4 4C590.8 4 617.2 4 643.6 4C671.2 4 697.6 4 724 4C750.4 4 776.8 4 804.4 4C830.8 4 857.2 4 883.6 4C911.2 4 937.6 4 964 4C990.4 4 1016.8 4 1044.4 4C1070.8 4 1097.2 4 1123.6 4C1151.2 4 1177.6 4 1204 4C1230.4 4 1256.8 4 1284.4 4C1310.8 4 1337.2 4 1363.6 4C1391.2 4 1417.6 4 1430.8 4H1444V209.927Z" stroke="black"/>
</g>
<defs>
<filter id="filter0_f_558_413" x="0" y="0" width="1448" height="411" filterUnits="userSpaceOnUse" color-interpolation-filters="sRGB">
<feFlood flood-opacity="0" result="BackgroundImageFix"/>
<feBlend mode="normal" in="SourceGraphic" in2="BackgroundImageFix" result="shape"/>
<feGaussianBlur stdDeviation="2" result="effect1_foregroundBlur_558_413"/>
</filter>
</defs>
</svg>
