<svg width="42" height="46" viewBox="0 0 42 46" fill="none" xmlns="http://www.w3.org/2000/svg">
<path d="M29.5292 19.579L41 1M14.28 19.9904L1 1M24.88 18.7056L12.8 1M29.8 1L26.6 6.5M4.07692 31.8C4.07692 35.3009 6.02197 38.6583 9.48418 41.1338C12.9464 43.6093 17.6422 45 22.5385 45C27.4348 45 32.1305 43.6093 35.5927 41.1338C39.055 38.6583 41 35.3009 41 31.8C41 28.2991 39.055 24.9417 35.5927 22.4662C32.1305 19.9907 27.4348 18.6 22.5385 18.6C17.6422 18.6 12.9464 19.9907 9.48418 22.4662C6.02197 24.9417 4.07692 28.2991 4.07692 31.8Z" stroke="black" stroke-width="1.5" stroke-linecap="round" stroke-linejoin="round"/>
</svg>
