<svg width="1440" height="714" viewBox="0 0 1440 714" fill="none" xmlns="http://www.w3.org/2000/svg">
<path fill-rule="evenodd" clip-rule="evenodd" d="M0 452.557L13.2 350.884C26.4 249.212 52.8 45.8667 80.4 89.4407C106.8 133.015 133.2 423.507 159.6 510.655C187.2 597.803 213.6 481.606 240 423.507C266.4 365.409 292.8 365.409 320.4 350.884C346.8 336.359 373.2 307.31 399.6 249.212C427.2 191.113 453.6 103.965 480 162.064C506.4 220.162 532.8 423.507 560.4 423.507C586.8 423.507 613.2 220.162 639.6 118.49C667.2 16.8175 693.6 16.8175 720 16.8175C746.4 16.8175 772.8 16.8175 800.4 60.3914C826.8 103.965 853.2 191.113 879.6 205.638C907.2 220.162 933.6 162.064 960 133.015C986.4 103.965 1012.8 103.965 1040.4 74.916C1066.8 45.8667 1093.2 -12.2318 1119.6 2.29284C1147.2 16.8175 1173.6 103.965 1200 176.588C1226.4 249.212 1252.8 307.31 1280.4 394.458C1306.8 481.606 1333.2 597.803 1359.6 597.803C1387.2 597.803 1413.6 481.606 1426.8 423.507L1440 365.409V714H1426.8C1413.6 714 1387.2 714 1359.6 714C1333.2 714 1306.8 714 1280.4 714C1252.8 714 1226.4 714 1200 714C1173.6 714 1147.2 714 1119.6 714C1093.2 714 1066.8 714 1040.4 714C1012.8 714 986.4 714 960 714C933.6 714 907.2 714 879.6 714C853.2 714 826.8 714 800.4 714C772.8 714 746.4 714 720 714C693.6 714 667.2 714 639.6 714C613.2 714 586.8 714 560.4 714C532.8 714 506.4 714 480 714C453.6 714 427.2 714 399.6 714C373.2 714 346.8 714 320.4 714C292.8 714 266.4 714 240 714C213.6 714 187.2 714 159.6 714C133.2 714 106.8 714 80.4 714C52.8 714 26.4 714 13.2 714H0V452.557Z" fill="#7FC3E0" fill-opacity="0.28"/>
</svg>
