<svg width="1440" height="297" viewBox="0 0 1440 297" fill="none" xmlns="http://www.w3.org/2000/svg">
<path fill-rule="evenodd" clip-rule="evenodd" d="M1440 32.0051L1422 74.6786C1402.8 117.352 1365.6 202.699 1329.6 250.707C1292.4 298.715 1255.2 309.383 1218 282.712C1182 256.041 1144.8 192.031 1107.6 160.026C1070.4 128.021 1034.4 128.021 997.2 154.691C960 181.362 922.8 234.704 885.6 250.707C849.6 266.709 812.4 245.373 775.2 240.038C738 234.704 702 245.373 664.8 224.036C627.6 202.699 590.4 149.357 554.4 149.357C517.2 149.357 480 202.699 442.8 224.036C405.6 245.373 369.6 234.704 332.4 234.704C295.2 234.704 258 245.373 222 234.704C184.8 224.036 147.6 192.031 110.4 186.697C74.3999 181.362 37.2 202.699 18 213.368L0 224.036V-9.83477e-06H18C37.2 -9.83477e-06 74.3999 -9.83477e-06 110.4 -9.83477e-06C147.6 -9.83477e-06 184.8 -9.83477e-06 222 -9.83477e-06C258 -9.83477e-06 295.2 -9.83477e-06 332.4 -9.83477e-06C369.6 -9.83477e-06 405.6 -9.83477e-06 442.8 -9.83477e-06C480 -9.83477e-06 517.2 -9.83477e-06 554.4 -9.83477e-06C590.4 -9.83477e-06 627.6 -9.83477e-06 664.8 -9.83477e-06C702 -9.83477e-06 738 -9.83477e-06 775.2 -9.83477e-06C812.4 -9.83477e-06 849.6 -9.83477e-06 885.6 -9.83477e-06C922.8 -9.83477e-06 960 -9.83477e-06 997.2 -9.83477e-06C1034.4 -9.83477e-06 1070.4 -9.83477e-06 1107.6 -9.83477e-06C1144.8 -9.83477e-06 1182 -9.83477e-06 1218 -9.83477e-06C1255.2 -9.83477e-06 1292.4 -9.83477e-06 1329.6 -9.83477e-06C1365.6 -9.83477e-06 1402.8 -9.83477e-06 1422 -9.83477e-06H1440V32.0051Z" fill="#96C9EC" fill-opacity="0.46"/>
</svg>
