<svg width="48" height="53" viewBox="0 0 48 53" fill="none" xmlns="http://www.w3.org/2000/svg">
<path d="M33.8086 22.5347L47 1M16.272 23.0116L1 1M28.462 21.5224L14.57 1M34.12 1L30.44 7.375M4.53846 36.7C4.53846 40.7578 6.77527 44.6494 10.7568 47.5187C14.7384 50.388 20.1385 52 25.7692 52C31.4 52 36.8001 50.388 40.7817 47.5187C44.7632 44.6494 47 40.7578 47 36.7C47 32.6422 44.7632 28.7506 40.7817 25.8813C36.8001 23.012 31.4 21.4 25.7692 21.4C20.1385 21.4 14.7384 23.012 10.7568 25.8813C6.77527 28.7506 4.53846 32.6422 4.53846 36.7Z" stroke="black" stroke-width="1.5" stroke-linecap="round" stroke-linejoin="round"/>
</svg>
