<svg width="1448" height="148" viewBox="0 0 1448 148" fill="none" xmlns="http://www.w3.org/2000/svg">
<g filter="url(#filter0_f_558_412)">
<path fill-rule="evenodd" clip-rule="evenodd" d="M1444 144L1426 125.333C1406.8 106.667 1369.6 69.3333 1333.6 50.6667C1296.4 32 1259.2 32 1222 46C1186 60 1148.8 88 1111.6 90.3333C1074.4 92.6667 1038.4 69.3333 1001.2 64.6667C964 60 926.8 74 889.6 81C853.6 88 816.4 88 779.2 95C742 102 706 116 668.8 104.333C631.6 92.6667 594.4 55.3333 558.4 48.3333C521.2 41.3333 484 64.6667 446.8 74C409.6 83.3333 373.6 78.6667 336.4 78.6667C299.2 78.6667 262 83.3333 226 76.3333C188.8 69.3333 151.6 50.6667 114.4 39C78.3999 27.3333 41.1999 22.6667 21.9999 20.3333L3.99994 18V4H21.9999C41.1999 4 78.3999 4 114.4 4C151.6 4 188.8 4 226 4C262 4 299.2 4 336.4 4C373.6 4 409.6 4 446.8 4C484 4 521.2 4 558.4 4C594.4 4 631.6 4 668.8 4C706 4 742 4 779.2 4C816.4 4 853.6 4 889.6 4C926.8 4 964 4 1001.2 4C1038.4 4 1074.4 4 1111.6 4C1148.8 4 1186 4 1222 4C1259.2 4 1296.4 4 1333.6 4C1369.6 4 1406.8 4 1426 4H1444V144Z" fill="#75D7F6" fill-opacity="0.3"/>
<path fill-rule="evenodd" clip-rule="evenodd" d="M1444 144L1426 125.333C1406.8 106.667 1369.6 69.3333 1333.6 50.6667C1296.4 32 1259.2 32 1222 46C1186 60 1148.8 88 1111.6 90.3333C1074.4 92.6667 1038.4 69.3333 1001.2 64.6667C964 60 926.8 74 889.6 81C853.6 88 816.4 88 779.2 95C742 102 706 116 668.8 104.333C631.6 92.6667 594.4 55.3333 558.4 48.3333C521.2 41.3333 484 64.6667 446.8 74C409.6 83.3333 373.6 78.6667 336.4 78.6667C299.2 78.6667 262 83.3333 226 76.3333C188.8 69.3333 151.6 50.6667 114.4 39C78.3999 27.3333 41.1999 22.6667 21.9999 20.3333L3.99994 18V4H21.9999C41.1999 4 78.3999 4 114.4 4C151.6 4 188.8 4 226 4C262 4 299.2 4 336.4 4C373.6 4 409.6 4 446.8 4C484 4 521.2 4 558.4 4C594.4 4 631.6 4 668.8 4C706 4 742 4 779.2 4C816.4 4 853.6 4 889.6 4C926.8 4 964 4 1001.2 4C1038.4 4 1074.4 4 1111.6 4C1148.8 4 1186 4 1222 4C1259.2 4 1296.4 4 1333.6 4C1369.6 4 1406.8 4 1426 4H1444V144Z" stroke="black"/>
</g>
<defs>
<filter id="filter0_f_558_412" x="0" y="0" width="1448" height="148" filterUnits="userSpaceOnUse" color-interpolation-filters="sRGB">
<feFlood flood-opacity="0" result="BackgroundImageFix"/>
<feBlend mode="normal" in="SourceGraphic" in2="BackgroundImageFix" result="shape"/>
<feGaussianBlur stdDeviation="2" result="effect1_foregroundBlur_558_412"/>
</filter>
</defs>
</svg>
