<svg width="39" height="66" viewBox="0 0 39 66" fill="none" xmlns="http://www.w3.org/2000/svg">
<path d="M39 5.27998V63.3598C38.9996 63.8295 38.8963 64.2905 38.7009 64.6954C38.5054 65.1002 38.2249 65.4342 37.8882 65.6629C37.5515 65.8915 37.1708 66.0066 36.7854 65.9962C36.4 65.9858 36.0239 65.8504 35.6958 65.6038L19.5 53.2618L3.30417 65.6038C2.96497 65.8686 2.56947 66.0063 2.16667 65.9998C1.79695 66.0043 1.43273 65.8905 1.11042 65.6698C0.774991 65.4377 0.495721 65.1019 0.300768 64.6964C0.105815 64.2908 0.0020717 63.8298 0 63.3598V5.27998C0 3.87964 0.456546 2.53666 1.2692 1.54647C2.08186 0.556282 3.18406 0 4.33333 0H34.6667C35.8159 0 36.9181 0.556282 37.7308 1.54647C38.5435 2.53666 39 3.87964 39 5.27998Z" fill="black"/>
</svg>
